<svg width="36" height="36" viewBox="0 0 36 36" fill="none" xmlns="http://www.w3.org/2000/svg">
<path d="M18 11.625C18.3455 11.625 18.625 11.3455 18.625 11V9.75004C18.625 9.40457 18.3455 9.12502 18 9.12502C17.6546 9.12502 17.375 9.40457 17.375 9.75004V11C17.375 11.3455 17.6546 11.625 18 11.625Z" fill="url(#paint0_linear_32_680)"/>
<path d="M12.9167 10.9444C12.7433 10.6447 12.3594 10.5416 12.0628 10.7156C11.7637 10.8883 11.6612 11.2704 11.8339 11.5694L12.4589 12.6522C12.5749 12.8524 12.7849 12.9647 13.0009 12.9647C13.1071 12.9647 13.2146 12.9378 13.3128 12.8811C13.6119 12.7083 13.7144 12.3262 13.5417 12.0272L12.9167 10.9444Z" fill="url(#paint1_linear_32_680)"/>
<path d="M9.65189 15.4585L8.56914 14.8335C8.26943 14.6608 7.88799 14.7633 7.71525 15.0624C7.54252 15.3615 7.64506 15.7435 7.94412 15.9163L9.02687 16.5413C9.12514 16.5981 9.23254 16.6249 9.33877 16.6249C9.55486 16.6249 9.7648 16.5126 9.88076 16.3124C10.0535 16.0134 9.95096 15.6313 9.65189 15.4585Z" fill="url(#paint2_linear_32_680)"/>
<path d="M28.0552 26.0836L26.9725 25.4585C26.6734 25.2864 26.2913 25.3889 26.1186 25.6874C25.9458 25.9865 26.0484 26.3686 26.3474 26.5413L27.4302 27.1663C27.5285 27.2231 27.6359 27.2499 27.7421 27.2499C27.9582 27.2499 28.1681 27.1376 28.2841 26.9374C28.4568 26.6384 28.3543 26.2563 28.0552 26.0836Z" fill="url(#paint3_linear_32_680)"/>
<path d="M8.62502 21C8.62502 20.6546 8.34547 20.375 8 20.375H6.75002C6.40455 20.375 6.125 20.6546 6.125 21C6.125 21.3455 6.40455 21.6251 6.75002 21.6251H8C8.34547 21.625 8.62502 21.3455 8.62502 21Z" fill="url(#paint4_linear_32_680)"/>
<path d="M27.375 21C27.375 21.3455 27.6546 21.6251 28 21.6251H29.25C29.5955 21.6251 29.875 21.3455 29.875 21C29.875 20.6546 29.5955 20.375 29.25 20.375H28C27.6546 20.375 27.375 20.6546 27.375 21Z" fill="url(#paint5_linear_32_680)"/>
<path d="M9.02687 25.4585L7.94412 26.0835C7.64506 26.2563 7.54252 26.6383 7.71525 26.9374C7.83121 27.1376 8.04121 27.2499 8.25725 27.2499C8.36348 27.2499 8.47088 27.2231 8.56914 27.1663L9.65189 26.5413C9.95096 26.3685 10.0535 25.9864 9.88076 25.6874C9.70738 25.3889 9.32471 25.2864 9.02687 25.4585Z" fill="url(#paint6_linear_32_680)"/>
<path d="M27.4302 14.8335L26.3474 15.4585C26.0484 15.6313 25.9458 16.0134 26.1186 16.3124C26.2345 16.5126 26.4445 16.6249 26.6606 16.6249C26.7668 16.6249 26.8742 16.5981 26.9725 16.5413L28.0552 15.9163C28.3543 15.7435 28.4568 15.3615 28.2841 15.0624C28.1101 14.7633 27.7274 14.6608 27.4302 14.8335Z" fill="url(#paint7_linear_32_680)"/>
<path d="M23.9378 10.7155C23.6388 10.5416 23.2567 10.6448 23.0839 10.9444L22.4589 12.0272C22.2862 12.3262 22.3887 12.7083 22.6878 12.8811C22.786 12.9378 22.8934 12.9647 22.9997 12.9647C23.2158 12.9647 23.4257 12.8523 23.5417 12.6522L24.1667 11.5694C24.3395 11.2704 24.2369 10.8883 23.9378 10.7155Z" fill="url(#paint8_linear_32_680)"/>
<path d="M18.6226 14.0701C18.5945 13.7478 18.3241 13.5 18 13.5C17.6759 13.5 17.4055 13.7478 17.3775 14.0701L16.2685 26.7056C15.7771 27.1768 15.5 27.8164 15.5 28.5C15.5 29.8788 16.6212 31 18 31C19.3788 31 20.5 29.8789 20.5 28.5C20.5 27.8164 20.2229 27.1768 19.7316 26.7056L18.6226 14.0701Z" fill="url(#paint9_linear_32_680)"/>
<path d="M18 6.00002C9.72914 6.00002 3 12.7292 3 21C3 23.5049 3.63111 25.986 4.82555 28.1747C4.90488 28.32 5.03918 28.428 5.19785 28.4744C5.35652 28.5208 5.52744 28.5019 5.67393 28.4237L6.77133 27.8244C7.07408 27.659 7.18576 27.2793 7.02035 26.976C6.02549 25.1541 5.49996 23.0874 5.49996 21C5.49996 14.1073 11.1073 8.50004 17.9999 8.50004C24.8926 8.50004 30.4999 14.1073 30.4999 21C30.4999 23.0874 29.9744 25.1541 28.9795 26.976C28.8141 27.2793 28.9258 27.659 29.2286 27.8244L30.326 28.4237C30.4187 28.4744 30.5219 28.5 30.6257 28.5C30.6848 28.5 30.7441 28.4915 30.802 28.4744C30.9607 28.428 31.095 28.32 31.1743 28.1747C32.3689 25.9859 33 23.5049 33 21C33 12.7291 26.2709 6.00002 18 6.00002Z" fill="url(#paint10_linear_32_680)"/>
<defs>
<linearGradient id="paint0_linear_32_680" x1="18.5898" y1="11.625" x2="16.6791" y2="10.7744" gradientUnits="userSpaceOnUse">
<stop stop-color="#4A8AF4"/>
<stop offset="1" stop-color="#93E3F4"/>
</linearGradient>
<linearGradient id="paint1_linear_32_680" x1="13.5727" y1="12.9647" x2="11.301" y2="11.339" gradientUnits="userSpaceOnUse">
<stop stop-color="#4A8AF4"/>
<stop offset="1" stop-color="#93E3F4"/>
</linearGradient>
<linearGradient id="paint2_linear_32_680" x1="9.89886" y1="16.6249" x2="7.98038" y2="14.4994" gradientUnits="userSpaceOnUse">
<stop stop-color="#4A8AF4"/>
<stop offset="1" stop-color="#93E3F4"/>
</linearGradient>
<linearGradient id="paint3_linear_32_680" x1="28.3022" y1="27.2499" x2="26.3841" y2="25.1244" gradientUnits="userSpaceOnUse">
<stop stop-color="#4A8AF4"/>
<stop offset="1" stop-color="#93E3F4"/>
</linearGradient>
<linearGradient id="paint4_linear_32_680" x1="8.55451" y1="21.6251" x2="7.45686" y2="19.6703" gradientUnits="userSpaceOnUse">
<stop stop-color="#4A8AF4"/>
<stop offset="1" stop-color="#93E3F4"/>
</linearGradient>
<linearGradient id="paint5_linear_32_680" x1="29.8045" y1="21.6251" x2="28.7069" y2="19.6703" gradientUnits="userSpaceOnUse">
<stop stop-color="#4A8AF4"/>
<stop offset="1" stop-color="#93E3F4"/>
</linearGradient>
<linearGradient id="paint6_linear_32_680" x1="9.89886" y1="27.2499" x2="7.98086" y2="25.1244" gradientUnits="userSpaceOnUse">
<stop stop-color="#4A8AF4"/>
<stop offset="1" stop-color="#93E3F4"/>
</linearGradient>
<linearGradient id="paint7_linear_32_680" x1="28.3022" y1="16.6249" x2="26.3837" y2="14.4994" gradientUnits="userSpaceOnUse">
<stop stop-color="#4A8AF4"/>
<stop offset="1" stop-color="#93E3F4"/>
</linearGradient>
<linearGradient id="paint8_linear_32_680" x1="24.1977" y1="12.9647" x2="21.9261" y2="11.3389" gradientUnits="userSpaceOnUse">
<stop stop-color="#4A8AF4"/>
<stop offset="1" stop-color="#93E3F4"/>
</linearGradient>
<linearGradient id="paint9_linear_32_680" x1="20.359" y1="31" x2="11.7583" y2="28.8119" gradientUnits="userSpaceOnUse">
<stop stop-color="#4A8AF4"/>
<stop offset="1" stop-color="#93E3F4"/>
</linearGradient>
<linearGradient id="paint10_linear_32_680" x1="32.1538" y1="28.5" x2="9.35149" y2="1.42778" gradientUnits="userSpaceOnUse">
<stop stop-color="#4A8AF4"/>
<stop offset="1" stop-color="#93E3F4"/>
</linearGradient>
</defs>
</svg>
