<svg width="24" height="24" viewBox="0 0 24 24" fill="none" xmlns="http://www.w3.org/2000/svg">
<path d="M4 6.66666H20M10 10.6667V16.6667M14 10.6667V16.6667M5 6.66666L6 18.6667C6 19.1971 6.21071 19.7058 6.58579 20.0809C6.96086 20.4559 7.46957 20.6667 8 20.6667H16C16.5304 20.6667 17.0391 20.4559 17.4142 20.0809C17.7893 19.7058 18 19.1971 18 18.6667L19 6.66666M9 6.66666V3.66666C9 3.40144 9.10536 3.14709 9.29289 2.95955C9.48043 2.77201 9.73478 2.66666 10 2.66666H14C14.2652 2.66666 14.5196 2.77201 14.7071 2.95955C14.8946 3.14709 15 3.40144 15 3.66666V6.66666" stroke="white" stroke-width="2" stroke-linecap="round" stroke-linejoin="round"/>
</svg>
