<svg width="36" height="36" viewBox="0 0 36 36" fill="none" xmlns="http://www.w3.org/2000/svg">
<path d="M9.00207 20.9995C9.3999 20.9995 9.78143 21.1575 10.0627 21.4388C10.344 21.7201 10.5021 22.1017 10.5021 22.4995C10.5021 22.8973 10.344 23.2789 10.0627 23.5602C9.78143 23.8415 9.3999 23.9995 9.00207 23.9995C8.01716 23.9995 7.04189 23.8055 6.13195 23.4286C5.22201 23.0517 4.39521 22.4992 3.69877 21.8028C2.29225 20.3962 1.50208 18.4886 1.50208 16.4994C1.50208 14.5102 2.29225 12.6026 3.69877 11.196C5.1053 9.78947 7.01295 8.99928 9.00207 8.99928C10.5021 5.47422 13.9521 2.99918 18.0021 2.99918C23.1471 2.99918 27.3621 6.98925 27.7521 12.0443L28.5021 11.9993C30.0934 11.9993 31.6195 12.6315 32.7447 13.7567C33.8699 14.882 34.5021 16.4081 34.5021 17.9994C34.5021 19.5907 33.8699 21.1169 32.7447 22.2421C31.6195 23.3674 30.0934 23.9995 28.5021 23.9995H27.0021C26.6042 23.9995 26.2227 23.8415 25.9414 23.5602C25.6601 23.2789 25.5021 22.8973 25.5021 22.4995C25.5021 22.1017 25.6601 21.7201 25.9414 21.4388C26.2227 21.1575 26.6042 20.9995 27.0021 20.9995H28.5021C29.2977 20.9995 30.0608 20.6834 30.6234 20.1208C31.186 19.5582 31.5021 18.7951 31.5021 17.9994C31.5021 17.2038 31.186 16.4407 30.6234 15.8781C30.0608 15.3155 29.2977 14.9994 28.5021 14.9994H25.5021V13.4994C25.5021 11.5102 24.7119 9.60251 23.3054 8.19597C21.8989 6.78942 19.9912 5.99923 18.0021 5.99923C14.2521 5.99923 11.1771 8.72927 10.5921 12.2843C10.0971 12.1043 9.55707 11.9993 9.00207 11.9993C7.8086 11.9993 6.66401 12.4734 5.82009 13.3174C4.97618 14.1613 4.50207 15.3059 4.50207 16.4994C4.50207 17.6929 4.97618 18.8375 5.82009 19.6814C6.66401 20.5254 7.8086 20.9995 9.00207 20.9995ZM15.0021 25.7482C15.7977 25.7482 16.5608 27.3156 17.1234 27.8783C17.686 28.4409 18.0021 29.204 18.0021 29.9996C18.0021 30.7953 17.686 31.5584 17.1234 32.121C16.5608 32.6836 15.7977 32.9997 15.0021 32.9997C14.2064 32.9997 13.4434 32.6836 12.8808 32.121C12.3181 31.5584 12.0021 30.7953 12.0021 29.9996C12.0021 29.204 12.3181 28.4409 12.8808 27.8783C13.4434 27.3156 14.2064 25.7482 15.0021 25.7482ZM21.6012 23.4002C22.198 23.4002 22.9211 24.2366 23.3431 24.6585C23.765 25.0805 24.0021 25.6528 24.0021 26.2496C24.0021 26.8463 23.765 27.4186 23.3431 27.8406C22.9211 28.2625 22.3488 28.4996 21.7521 28.4996C21.1553 28.4996 20.583 28.2625 20.1611 27.8406C19.7391 27.4186 19.5021 26.8463 19.5021 26.2496C19.5021 25.6528 19.7391 25.0805 20.1611 24.6585C20.583 24.2366 21.0045 23.4002 21.6012 23.4002ZM15.7521 17.1001C16.3488 17.1001 16.9211 18.2365 17.3431 18.6584C17.765 19.0804 18.0021 19.6527 18.0021 20.2495C18.0021 20.8462 17.765 21.4185 17.3431 21.8405C16.9211 22.2624 16.3488 22.4995 15.7521 22.4995C15.1553 22.4995 14.583 22.2624 14.1611 21.8405C13.7391 21.4185 13.5021 20.8462 13.5021 20.2495C13.5021 19.6527 13.7391 19.0804 14.1611 18.6584C14.583 18.2365 15.1553 17.1001 15.7521 17.1001Z" fill="url(#paint0_linear_32_672)"/>
<defs>
<linearGradient id="paint0_linear_32_672" x1="33.5713" y1="32.9997" x2="2.72534" y2="2.78695" gradientUnits="userSpaceOnUse">
<stop stop-color="#4A8AF4"/>
<stop offset="1" stop-color="#93E3F4"/>
</linearGradient>
</defs>
</svg>
