<svg width="36" height="36" viewBox="0 0 36 36" fill="none" xmlns="http://www.w3.org/2000/svg">
<path d="M23.37 18C23.37 20.97 20.97 23.37 18 23.37C15.03 23.37 12.63 20.97 12.63 18C12.63 15.03 15.03 12.63 18 12.63C20.97 12.63 23.37 15.03 23.37 18Z" stroke="url(#paint0_linear_32_664)" stroke-width="3" stroke-linecap="round" stroke-linejoin="round"/>
<path d="M18 30.405C23.295 30.405 28.23 27.285 31.665 21.885C33.015 19.77 33.015 16.215 31.665 14.1C28.23 8.7 23.295 5.58 18 5.58C12.705 5.58 7.77001 8.7 4.33501 14.1C2.98501 16.215 2.98501 19.77 4.33501 21.885C7.77001 27.285 12.705 30.405 18 30.405Z" stroke="url(#paint1_linear_32_664)" stroke-width="3" stroke-linecap="round" stroke-linejoin="round"/>
<defs>
<linearGradient id="paint0_linear_32_664" x1="23.0671" y1="23.37" x2="12.096" y2="13.6009" gradientUnits="userSpaceOnUse">
<stop stop-color="#4A8AF4"/>
<stop offset="1" stop-color="#93E3F4"/>
</linearGradient>
<linearGradient id="paint1_linear_32_664" x1="31.8495" y1="30.405" x2="6.35334" y2="3.55934" gradientUnits="userSpaceOnUse">
<stop stop-color="#4A8AF4"/>
<stop offset="1" stop-color="#93E3F4"/>
</linearGradient>
</defs>
</svg>
