<svg width="36" height="36" viewBox="0 0 36 36" fill="none" xmlns="http://www.w3.org/2000/svg">
<path d="M3.00006 22.5L27.7501 22.5C30.6451 22.5 33.0001 24.855 33.0001 27.75C33.0001 30.645 30.6451 33 27.7501 33C24.8551 33 22.5001 30.645 22.5001 27.75V27" stroke="url(#paint0_linear_260_404)" stroke-width="2.7" stroke-miterlimit="10" stroke-linecap="round" stroke-linejoin="round"/>
<path d="M3.00006 18.0002L27.7501 18.0002C30.6301 18.0002 33.0001 15.6452 33.0001 12.7502C33.0001 9.87015 30.6301 7.50015 27.7501 7.50015C24.8701 7.50015 22.5001 9.85515 22.5001 12.7502V13.5002" stroke="url(#paint1_linear_260_404)" stroke-width="2.7" stroke-miterlimit="10" stroke-linecap="round" stroke-linejoin="round"/>
<path d="M3.00006 13.4999L13.9651 13.4999C16.2001 13.4999 18.0001 11.6849 18.0001 9.46489C18.0001 7.22989 16.1851 5.42989 13.9651 5.42989C11.7301 5.42989 9.93005 7.24489 9.93005 9.46489V10.0349" stroke="url(#paint2_linear_260_404)" stroke-width="2.7" stroke-miterlimit="10" stroke-linecap="round" stroke-linejoin="round"/>
<defs>
<linearGradient id="paint0_linear_260_404" x1="32.1539" y1="33" x2="24.8011" y2="14.2936" gradientUnits="userSpaceOnUse">
<stop stop-color="#4A8AF4"/>
<stop offset="1" stop-color="#93E3F4"/>
</linearGradient>
<linearGradient id="paint1_linear_260_404" x1="32.1539" y1="18.0002" x2="24.8011" y2="-0.706215" gradientUnits="userSpaceOnUse">
<stop stop-color="#4A8AF4"/>
<stop offset="1" stop-color="#93E3F4"/>
</linearGradient>
<linearGradient id="paint2_linear_260_404" x1="17.577" y1="13.4999" x2="10.2302" y2="1.34031" gradientUnits="userSpaceOnUse">
<stop stop-color="#4A8AF4"/>
<stop offset="1" stop-color="#93E3F4"/>
</linearGradient>
</defs>
</svg>
